<?xml version="1.0" standalone="no"?>
<!DOCTYPE svg PUBLIC "-//W3C//DTD SVG 20010904//EN"
 "http://www.w3.org/TR/2001/REC-SVG-20010904/DTD/svg10.dtd">
<svg version="1.0" xmlns="http://www.w3.org/2000/svg"
 width="269.000000pt" height="269.000000pt" viewBox="0 0 269.000000 269.000000"
 preserveAspectRatio="xMidYMid meet">

<g transform="translate(0.000000,269.000000) scale(0.100000,-0.100000)"
fill="#000000" stroke="none">
<path d="M0 1345 l0 -1345 1345 0 1345 0 0 1345 0 1345 -1345 0 -1345 0 0
-1345z m1504 569 c110 -28 184 -71 272 -159 126 -124 179 -253 177 -430 -3
-279 -199 -512 -478 -570 -94 -19 -137 -19 -233 1 -179 36 -337 156 -416 316
-166 340 19 746 384 842 74 20 218 20 294 0z"/>
<path d="M1196 1649 c-8 -19 -76 -169 -151 -333 -74 -165 -133 -301 -131 -303
2 -2 113 63 247 145 134 81 326 197 426 258 99 60 180 110 178 112 -2 2 -26
-7 -54 -19 -29 -12 -53 -20 -56 -18 -2 3 14 44 36 92 21 48 39 89 39 92 0 6
-98 -52 -121 -72 -9 -7 -31 -49 -50 -93 l-34 -80 -80 -34 c-44 -19 -83 -32
-87 -28 -4 4 -38 76 -77 161 l-70 155 -15 -35z m44 -257 c14 -31 25 -61 25
-65 0 -5 -30 -22 -67 -37 -38 -16 -68 -25 -68 -19 0 15 72 179 79 179 3 0 17
-26 31 -58z"/>
<path d="M1538 1363 c-54 -37 -71 -55 -84 -90 -16 -41 -44 -59 -44 -28 0 8 -5
15 -11 15 -16 0 -69 -40 -69 -52 0 -13 79 -190 89 -201 5 -5 45 73 90 172 79
175 103 231 98 231 -1 0 -32 -21 -69 -47z"/>
</g>
</svg>
