<?xml version="1.0" encoding="utf-8"?>
<!-- Generator: Adobe Illustrator 28.0.0, SVG Export Plug-In . SVG Version: 6.00 Build 0)  -->
<svg version="1.1" id="Calque_1" xmlns="http://www.w3.org/2000/svg" xmlns:xlink="http://www.w3.org/1999/xlink" x="0px" y="0px"
	 viewBox="0 0 484.72 461.76" style="enable-background:new 0 0 484.72 461.76;" xml:space="preserve">
<style type="text/css">
	.st0{fill:#F3F3F5;}
	.st1{fill:none;}
	.st2{fill:#2B2A29;}
	.st3{fill:url(#SVGID_1_);}
</style>
<g>
	<circle class="st0" cx="242.36" cy="230.88" r="157.97"/>
	<g>
		<polyline class="st1" points="359.88,174.56 360.38,174.26 360.43,174.26 362.98,172.61 363.13,172.51 		"/>
		<path d="M362.98,172.61"/>
		<polyline class="st1" points="363.14,173.66 362.99,173.76 361.89,174.51 361.74,174.61 361.69,174.61 360.99,175.06 
			360.44,175.41 360.39,175.41 359.84,175.76 		"/>
		<g>
			<path class="st2" d="M306.24,160.75l-19.1,42.65l-1.45,3.25l32.9-14.05v-0.05l20.05-44.45l4.6-9.95L306.24,160.75z"/>
			<polygon class="st2" points="242.34,225.16 219.24,235.01 218.24,232.81 202.49,198.21 178.14,252.56 178.14,252.61 
				178.04,252.81 157.93,297.61 157.93,297.66 121.23,319.81 145.18,266.66 189.24,168.96 193.29,160 202.99,138.5 230.14,198.26 
				240.14,220.21 240.09,220.21 			"/>
			<polygon class="st2" points="301.75,216.01 272.49,236.21 260.04,263.91 253.44,249.36 252.74,249.81 251.29,250.81 
				250.89,251.11 250.64,251.26 249.19,252.26 248.59,252.66 238.79,259.45 236.89,260.75 236.59,260.96 235.98,261.39 
				234.9,262.13 234.54,262.36 234.49,262.41 232.39,263.86 259.54,323.61 269.24,302.11 273.29,293.11 310.89,209.71 
				306.89,212.46 			"/>
		</g>
		<linearGradient id="SVGID_1_" gradientUnits="userSpaceOnUse" x1="196.319" y1="149.6355" x2="262.2366" y2="310.204">
			<stop  offset="0" style="stop-color:#2B2A29"/>
			<stop  offset="0.2322" style="stop-color:#272726"/>
			<stop  offset="0.4417" style="stop-color:#1C1C1B"/>
			<stop  offset="0.6418" style="stop-color:#0A0A0A"/>
			<stop  offset="0.7263" style="stop-color:#000000"/>
		</linearGradient>
		<polygon class="st3" points="242.34,225.16 219.24,235.01 218.24,232.81 189.24,168.96 193.29,160 202.99,138.5 240.14,220.21 
			240.09,220.21 		"/>
		<polygon class="st2" points="363.49,173.41 145.19,266.66 121.23,319.81 		"/>
		<polyline class="st1" points="259.54,323.61 232.39,263.86 219.24,235.01 218.24,232.81 189.24,168.95 		"/>
		<polyline class="st1" points="273.29,293.11 260.04,263.91 253.39,249.36 240.14,220.21 202.99,138.5 		"/>
	</g>
</g>
</svg>
